<?xml version="1.0" standalone="no"?>
<!DOCTYPE svg PUBLIC "-//W3C//DTD SVG 20010904//EN"
 "http://www.w3.org/TR/2001/REC-SVG-20010904/DTD/svg10.dtd">
<svg version="1.0" xmlns="http://www.w3.org/2000/svg"
 width="512.000000pt" height="512.000000pt" viewBox="0 0 512.000000 512.000000"
 preserveAspectRatio="xMidYMid meet">
<metadata>
Created by potrace 1.16, written by Peter Selinger 2001-2019
</metadata>
<g transform="translate(0.000000,512.000000) scale(0.100000,-0.100000)"
fill="#000000" stroke="none">
<path d="M335 4130 c-15 -17 -16 -24 -7 -45 12 -26 26 -32 37 -15 4 6 -1 7
-11 3 -13 -5 -15 -2 -9 18 5 13 8 30 8 37 0 7 7 10 14 8 8 -3 11 -1 8 4 -9 15
-20 12 -40 -10z m8 -20 c-3 -12 -8 -19 -11 -16 -5 6 5 36 12 36 2 0 2 -9 -1
-20z"/>
<path d="M405 4140 c-3 -6 1 -7 9 -4 18 7 21 14 7 14 -6 0 -13 -4 -16 -10z"/>
<path d="M446 4126 c6 -16 -29 -70 -39 -60 -3 3 -14 1 -24 -5 -15 -9 -11 -11
22 -11 69 0 76 -1 69 -12 -4 -7 -2 -8 5 -4 14 9 3 29 -13 23 -6 -3 -18 3 -26
11 -13 14 -12 15 3 9 14 -5 17 -1 17 23 0 16 -4 32 -10 35 -6 3 -7 -1 -4 -9z"/>
<path d="M875 4061 c-3 -5 -2 -12 3 -15 5 -3 9 1 9 9 0 17 -3 19 -12 6z"/>
<path d="M500 4013 c0 -1 8 -7 18 -12 13 -7 19 -6 19 2 0 7 -9 13 -19 13 -10
0 -18 -1 -18 -3z"/>
<path d="M572 3981 c-7 -4 0 -13 21 -25 17 -9 24 -11 15 -3 -10 8 -15 16 -12
19 9 10 -11 17 -24 9z"/>
<path d="M634 3944 c3 -18 56 -55 68 -48 14 9 -2 24 -18 17 -9 -3 -14 0 -12 8
2 9 -4 13 -16 11 -10 -2 -15 1 -12 7 4 5 2 12 -3 15 -5 4 -8 -1 -7 -10z"/>
<path d="M1076 3921 c-4 -5 -2 -12 3 -15 5 -4 12 -2 15 3 4 5 2 12 -3 15 -5 4
-12 2 -15 -3z"/>
<path d="M1106 3902 c-3 -5 1 -9 9 -9 8 0 12 4 9 9 -3 4 -7 8 -9 8 -2 0 -6 -4
-9 -8z"/>
<path d="M790 3834 c0 -8 58 -38 72 -37 10 1 17 -1 16 -5 -1 -4 3 -18 9 -32 6
-14 17 -40 23 -57 11 -30 16 -33 54 -31 38 1 39 1 7 5 -22 3 -35 11 -38 24 -3
10 -10 16 -16 12 -7 -4 -8 0 -4 11 4 10 4 28 1 40 -6 25 -52 56 -72 49 -7 -3
-11 1 -10 7 2 7 -7 13 -19 15 -13 1 -23 1 -23 -1z"/>
<path d="M422 3768 c-7 -7 -12 -24 -12 -40 0 -33 28 -51 75 -47 28 3 56 -11
157 -76 l123 -80 161 -2 161 -2 72 -46 c39 -25 76 -43 83 -39 6 4 8 3 4 -4 -3
-6 16 -23 46 -41 87 -51 84 -47 67 -67 -15 -18 -12 -18 34 5 34 18 34 27 0 36
-14 3 -91 47 -170 96 l-144 90 -134 -6 c-156 -7 -155 -7 -302 89 -92 59 -103
69 -103 96 0 19 -7 33 -19 40 -27 14 -84 13 -99 -2z m94 -34 c16 -23 12 -25
-41 -25 -56 0 -59 4 -32 39 15 19 57 11 73 -14z"/>
<path d="M2100 3765 c7 -8 17 -12 22 -9 6 4 5 10 -3 15 -22 14 -33 10 -19 -6z"/>
<path d="M2450 3766 c0 -28 50 -34 75 -10 21 21 13 29 -14 12 -17 -10 -25 -10
-41 0 -16 10 -20 10 -20 -2z"/>
<path d="M140 3730 c-41 -41 -13 -80 55 -80 34 0 47 5 55 20 31 59 -61 109
-110 60z m85 -9 c-3 -2 2 -12 11 -22 14 -16 13 -18 -15 -24 -17 -3 -40 -3 -52
0 -16 5 -19 4 -14 -5 5 -8 4 -11 -3 -7 -15 10 -2 48 20 56 21 7 60 9 53 2z"/>
<path d="M736 3711 c-4 -5 3 -7 14 -4 23 6 26 13 6 13 -8 0 -17 -4 -20 -9z"/>
<path d="M1038 3673 c6 -2 18 -2 25 0 6 3 1 5 -13 5 -14 0 -19 -2 -12 -5z"/>
<path d="M1920 3670 c0 -13 18 -22 24 -11 3 5 -1 11 -9 15 -8 3 -15 1 -15 -4z"/>
<path d="M1106 3661 c-7 -11 105 -82 117 -74 17 10 -14 28 -56 32 -5 1 -5 5
-2 11 3 6 -1 7 -10 4 -10 -4 -15 -2 -13 7 2 9 -4 13 -16 11 -11 -2 -15 1 -11
7 3 6 4 11 1 11 -3 0 -7 -4 -10 -9z"/>
<path d="M1555 3659 c-6 -9 1 -13 18 -10 4 0 7 -4 7 -10 0 -5 4 -8 9 -5 4 3
16 -3 26 -14 10 -11 22 -17 26 -14 5 3 9 1 9 -5 0 -5 14 -16 31 -25 52 -26 17
7 -56 53 -36 22 -67 36 -70 30z"/>
<path d="M246 3651 c-4 -5 85 -68 196 -140 l202 -131 194 0 194 0 70 -50 c39
-27 75 -47 80 -44 13 9 -3 26 -19 20 -8 -3 -11 -2 -8 4 3 5 -21 27 -54 49
l-60 41 -190 0 -189 0 -201 130 c-110 72 -202 130 -205 130 -3 0 -7 -4 -10 -9z
m875 -318 c13 -16 12 -17 -3 -4 -10 7 -18 15 -18 17 0 8 8 3 21 -13z"/>
<path d="M1237 3583 c-11 -11 3 -22 20 -16 11 4 14 2 9 -5 -3 -6 2 -16 13 -22
28 -15 36 5 8 22 -39 26 -44 28 -50 21z"/>
<path d="M1742 3564 c10 -10 20 -15 24 -12 3 4 -5 12 -18 18 -22 12 -22 12 -6
-6z"/>
<path d="M1486 3552 c-3 -5 13 -22 35 -36 31 -21 40 -24 37 -11 -4 20 -64 59
-72 47z"/>
<path d="M1855 3547 c-15 -12 -16 -15 -4 -22 8 -5 11 -5 7 0 -4 4 0 14 10 21
23 18 11 18 -13 1z"/>
<path d="M2430 3397 c-425 -244 -481 -277 -475 -287 3 -5 54 -38 113 -73 59
-35 141 -85 183 -111 l77 -47 93 52 92 52 -28 23 c-60 48 -70 50 -122 21 -46
-24 -50 -25 -78 -10 -45 24 -95 64 -95 77 0 11 172 119 206 130 13 3 75 -31
194 -108 148 -95 175 -116 175 -137 0 -20 -20 -35 -140 -102 -242 -136 -265
-147 -304 -147 -30 0 -82 28 -281 150 -313 192 -300 183 -300 226 0 19 4 43
10 53 5 10 68 53 140 96 74 44 127 82 123 88 -3 6 -1 7 6 3 7 -5 42 10 81 34
76 46 92 62 31 31 -29 -16 -41 -17 -50 -8 -7 7 -12 8 -11 2 5 -21 -1 -33 -17
-39 -15 -6 -16 -5 -1 11 10 12 13 25 8 38 -5 12 -9 14 -9 5 -1 -11 -4 -11 -13
-2 -7 7 -31 12 -54 12 -24 0 -46 5 -49 10 -4 6 -11 7 -17 4 -6 -4 -32 -8 -57
-8 -33 -1 -45 -5 -43 -15 2 -9 -3 -11 -13 -7 -9 3 -23 6 -31 6 -8 0 -11 6 -8
15 5 11 2 13 -12 8 -13 -5 -15 -3 -9 7 6 9 4 11 -4 6 -7 -5 -10 -15 -6 -25 5
-13 4 -14 -6 -3 -16 14 -33 16 -24 2 4 -6 -9 -17 -27 -25 -18 -8 -28 -14 -23
-15 10 0 -15 -20 -27 -20 -8 0 -5 21 6 38 7 11 4 11 -12 1 -12 -7 -18 -17 -15
-23 3 -5 1 -6 -5 -2 -11 7 -117 -49 -238 -126 -82 -52 -101 -91 -81 -170 8
-31 32 -48 237 -175 80 -49 305 -189 501 -310 198 -123 375 -227 399 -233 63
-17 125 -4 205 42 426 248 1050 626 1060 642 8 12 17 35 21 51 l7 30 -29 -26
c-16 -15 -67 -48 -114 -74 -74 -42 -224 -129 -340 -198 l-35 -20 25 27 c18 20
20 25 7 20 -12 -4 -17 -1 -17 11 0 9 -5 13 -10 10 -6 -4 -8 -9 -6 -13 2 -4 -9
-7 -24 -7 -21 0 -27 4 -25 18 3 11 -2 17 -14 17 -9 0 -27 9 -39 20 -13 13 -35
20 -59 20 -29 0 -34 3 -25 12 7 7 12 15 12 19 0 7 -49 24 -62 21 -15 -3 -8 19
7 24 8 4 15 17 15 29 0 13 5 27 10 30 12 8 9 37 -5 47 -20 15 -28 8 -12 -10
10 -10 17 -22 17 -25 0 -9 -116 -67 -134 -67 -17 0 -361 224 -372 242 -4 6 2
17 12 25 10 8 18 19 16 24 -1 6 2 8 8 4 8 -5 100 40 100 49 0 1 -13 1 -30 -2
-17 -2 -30 0 -30 6 0 6 -10 8 -22 5 -19 -4 -20 -3 -8 6 8 6 10 11 4 11 -18 0
-24 -13 -12 -27 6 -7 8 -16 4 -20 -3 -3 -6 -1 -6 6 0 7 -4 9 -10 6 -5 -3 -10
-2 -10 4 0 6 -8 8 -17 5 -16 -4 -16 -3 1 8 52 36 89 59 99 61 6 1 17 7 23 12
6 6 32 22 58 37 31 18 46 34 46 48 0 11 -3 20 -7 20 -5 -1 -127 -69 -273 -153z
m-543 17 c-3 -3 -12 -4 -19 -1 -8 3 -5 6 6 6 11 1 17 -2 13 -5z m108 -4 c3 -5
-3 -10 -14 -10 -12 0 -21 5 -21 10 0 6 6 10 14 10 8 0 18 -4 21 -10z m35 -21
c0 -5 -4 -9 -10 -9 -5 0 -10 7 -10 16 0 8 5 12 10 9 6 -3 10 -10 10 -16z m-65
-39 c3 -6 -1 -7 -9 -4 -18 7 -21 14 -7 14 6 0 13 -4 16 -10z m600 1 c3 -5 0
-13 -6 -17 -7 -4 -9 -3 -5 4 3 5 0 13 -6 15 -9 4 -10 6 -1 6 6 1 14 -3 18 -8z
m-1095 -156 c16 -20 -3 -45 -35 -45 -12 0 -28 7 -35 15 -16 20 3 45 35 45 12
0 28 -7 35 -15z m1574 -277 c-3 -4 -9 -8 -15 -8 -5 0 -9 4 -9 8 0 5 7 9 15 9
8 0 12 -4 9 -9z m96 -132 c0 -2 -7 -7 -16 -10 -8 -3 -12 -2 -9 4 6 10 25 14
25 6z m-632 -238 c29 -29 -10 -68 -48 -48 -32 17 -18 60 20 60 9 0 21 -5 28
-12z"/>
<path d="M1810 3520 c-9 -6 -10 -10 -3 -10 6 0 15 5 18 10 8 12 4 12 -15 0z"/>
<path d="M2305 3510 c-3 -6 1 -7 9 -4 18 7 21 14 7 14 -6 0 -13 -4 -16 -10z"/>
<path d="M1374 3494 c3 -18 25 -33 57 -39 18 -4 19 -2 8 11 -7 8 -18 13 -26
10 -8 -3 -11 -2 -8 4 3 5 -3 14 -14 19 -15 9 -19 8 -17 -5z"/>
<path d="M1760 3490 c-9 -6 -10 -10 -3 -10 6 0 15 5 18 10 8 12 4 12 -15 0z"/>
<path d="M2963 3440 c0 -36 2 -50 4 -32 2 17 2 47 0 65 -2 17 -4 3 -4 -33z"/>
<path d="M2255 3480 c-3 -6 1 -7 9 -4 18 7 21 14 7 14 -6 0 -13 -4 -16 -10z"/>
<path d="M1562 3462 c4 -19 29 -23 35 -6 2 6 -6 14 -17 17 -16 4 -20 1 -18
-11z"/>
<path d="M1691 3450 c-39 -25 -41 -28 -19 -27 15 1 26 5 25 8 -1 4 9 16 23 27
34 29 23 26 -29 -8z"/>
<path d="M1795 3450 c-3 -5 -1 -10 4 -10 6 0 11 5 11 10 0 6 -2 10 -4 10 -3 0
-8 -4 -11 -10z"/>
<path d="M2194 3444 c-18 -14 -18 -15 4 -4 12 6 22 13 22 15 0 8 -5 6 -26 -11z"/>
<path d="M2103 3425 c0 -8 4 -12 9 -9 5 3 6 10 3 15 -9 13 -12 11 -12 -6z"/>
<path d="M2847 3314 c-110 -62 -109 -60 -25 -108 46 -27 47 -27 58 -7 6 12 7
21 3 22 -4 1 -22 2 -40 3 -18 1 -35 4 -38 7 -3 3 26 23 65 44 50 27 72 46 79
66 5 16 7 29 3 29 -4 -1 -51 -26 -105 -56z"/>
<path d="M462 3334 c-25 -17 -29 -56 -7 -74 15 -12 81 -17 92 -6 3 3 15 -1 27
-9 16 -12 62 -15 226 -15 l205 0 53 -36 c53 -35 53 -36 35 -56 -15 -17 -18
-38 -18 -145 l0 -124 38 -35 c35 -33 37 -37 37 -99 l0 -66 -62 -39 -63 -40
-249 0 -249 0 -168 -105 c-148 -92 -174 -105 -213 -105 -70 0 -102 -51 -54
-84 46 -33 125 -6 114 38 -4 18 18 35 170 129 l175 109 242 -3 242 -3 72 47
73 47 35 -21 c19 -12 35 -24 35 -28 0 -4 -47 -36 -105 -69 l-104 -62 -194 0
-193 0 -80 -55 c-61 -43 -85 -54 -103 -50 -32 8 -79 -12 -87 -37 -9 -30 27
-62 70 -62 43 0 66 19 66 53 0 21 14 35 73 76 l72 50 190 -3 189 -2 118 71
c81 49 116 75 110 83 -5 6 -9 47 -9 91 l0 80 -56 30 c-31 17 -56 35 -54 40 2
6 19 18 38 29 l34 19 55 -33 c30 -19 57 -35 59 -36 2 -2 -11 -15 -28 -29 -27
-23 -31 -33 -31 -76 0 -48 1 -49 30 -49 30 0 30 0 30 -58 0 -32 5 -63 12 -70
14 -14 27 -5 -129 -96 l-132 -76 -150 0 -151 0 -47 -34 c-115 -81 -182 -116
-213 -110 -36 8 -80 -17 -80 -45 0 -27 32 -51 69 -51 48 0 73 17 69 46 -3 22
11 34 110 98 l113 72 151 3 152 3 90 52 c50 29 114 66 142 83 47 28 52 29 78
16 l27 -14 -3 83 -3 83 -52 28 c-29 16 -53 31 -53 35 0 4 16 18 35 31 l35 24
55 -34 c30 -18 55 -36 55 -40 0 -4 -11 -14 -25 -23 -21 -14 -25 -24 -25 -66 0
-43 3 -49 23 -52 20 -3 22 -9 25 -65 3 -57 5 -63 27 -69 14 -3 23 -10 20 -14
-3 -4 -97 -65 -209 -134 -199 -123 -205 -126 -262 -127 -55 0 -65 -5 -144 -57
l-85 -58 -5 -94 -5 -94 -90 -57 c-78 -50 -95 -57 -126 -52 -47 7 -79 -11 -79
-42 0 -48 72 -71 119 -39 16 11 21 23 17 38 -4 18 8 28 81 71 47 28 92 56 99
63 10 9 14 40 14 102 l0 88 84 56 c76 51 89 56 139 56 52 0 63 5 248 118 107
65 204 125 216 132 17 11 24 11 36 1 14 -11 15 -2 13 70 l-2 83 -52 25 c-30
15 -51 32 -50 40 2 7 19 22 39 34 l35 20 58 -34 57 -34 -30 -26 c-27 -22 -31
-32 -31 -72 0 -43 2 -47 25 -47 24 0 25 -3 25 -59 0 -38 5 -61 13 -65 7 -3 5
-5 -4 -3 -15 2 -127 -62 -421 -239 -111 -68 -145 -83 -183 -86 -35 -2 -51 -9
-62 -24 -21 -32 10 -66 60 -66 45 0 67 16 67 47 0 26 10 33 339 230 l214 127
33 -16 c19 -8 34 -20 34 -25 0 -5 -61 -46 -135 -91 -75 -45 -142 -88 -150 -97
-11 -10 -15 -36 -15 -88 l0 -73 -157 -92 c-87 -51 -206 -122 -265 -157 -75
-45 -113 -63 -127 -58 -55 17 -105 -28 -76 -71 12 -19 24 -24 60 -24 47 0 65
16 65 58 0 14 32 38 123 91 67 39 185 108 262 154 l140 82 3 81 3 82 145 88
c80 48 148 92 151 97 3 6 -3 16 -13 24 -10 8 -18 18 -17 23 2 5 -5 6 -15 3
-18 -7 -17 -5 12 17 11 8 17 10 14 5 -4 -6 -2 -17 3 -25 6 -10 8 10 7 59 l-3
73 -45 25 c-25 14 -49 28 -53 33 -8 7 51 60 67 60 4 0 32 -16 62 -35 l55 -35
-30 -26 c-27 -22 -31 -32 -31 -75 0 -46 2 -49 25 -49 22 0 25 -4 26 -37 1 -51
12 -86 27 -89 7 -1 8 0 2 3 -17 8 -12 53 7 53 14 0 14 3 -3 22 -13 14 -14 19
-4 14 11 -6 11 -4 -1 6 -15 12 -15 15 0 28 17 16 18 16 44 -7 9 -9 17 -11 17
-6 0 6 -21 23 -46 38 -49 29 -49 37 3 67 28 16 30 16 87 -20 l59 -35 -26 -22
c-23 -18 -27 -28 -27 -73 0 -49 2 -52 25 -52 24 0 30 12 26 47 -1 6 14 21 34
33 l35 22 55 -32 c30 -17 57 -35 60 -40 3 -4 -7 -15 -21 -24 -22 -15 -25 -23
-22 -63 l3 -47 79 -40 c78 -41 79 -41 190 -41 102 0 115 2 166 28 30 16 65 34
77 40 33 17 32 75 -2 107 -14 13 -25 26 -25 29 0 4 25 21 55 39 47 28 58 31
77 21 39 -20 58 -41 58 -66 0 -18 5 -23 25 -23 23 0 25 4 25 47 0 37 -6 53
-26 74 l-26 28 57 36 57 37 39 -26 c27 -18 39 -33 39 -50 0 -17 7 -25 25 -28
24 -5 25 -3 25 48 0 45 -4 55 -27 73 l-28 21 25 19 c14 11 42 28 62 37 37 16
38 16 73 -7 21 -15 35 -32 35 -45 0 -15 8 -23 25 -26 24 -5 25 -3 25 43 0 39
-5 51 -25 67 -14 11 -25 22 -25 25 0 8 96 67 110 67 23 0 80 -50 80 -71 0 -14
7 -19 25 -19 23 0 25 4 25 44 0 37 -5 48 -30 70 l-31 25 56 37 c51 34 58 36
80 24 36 -19 65 -49 65 -65 0 -8 4 -15 9 -15 5 0 16 -3 25 -6 13 -5 16 2 16
42 0 43 -4 52 -31 75 l-32 26 59 36 c32 21 61 37 64 37 17 0 73 -44 77 -61 5
-19 6 -19 25 -2 37 33 48 69 48 155 l0 83 -17 -33 c-24 -48 -189 -162 -214
-147 -5 4 -8 1 -7 -6 2 -6 -49 -43 -112 -82 -63 -38 -130 -79 -148 -90 -32
-19 -33 -19 -30 -1 4 23 134 108 150 98 6 -4 9 -3 5 2 -3 5 37 35 88 67 140
85 152 98 157 157 1 28 0 50 -4 50 -5 0 -8 -4 -8 -9 0 -30 -83 -89 -343 -244
-586 -350 -793 -471 -837 -491 -66 -29 -179 -28 -240 3 -46 24 -909 565 -1035
649 -104 70 -132 133 -101 227 5 14 1 24 -15 33 -26 17 -41 5 -16 -13 17 -12
16 -15 -17 -30 -35 -17 -35 -17 -93 19 l-58 36 -206 0 c-197 0 -207 1 -225 21
-10 12 -18 23 -16 25 8 14 -2 32 -23 42 -35 16 -56 15 -83 -4z m90 -33 c-8
-21 -23 -31 -49 -31 -25 0 -37 15 -29 36 4 10 18 14 45 13 31 -2 38 -6 33 -18z
m2744 -656 c-1 -9 -13 -23 -26 -32 -13 -9 -20 -11 -16 -5 4 7 1 12 -8 12 -10
0 -13 -6 -9 -17 4 -11 3 -14 -5 -9 -19 12 -14 23 21 44 40 25 46 26 43 7z
m-199 -120 c0 -8 -4 -12 -9 -9 -5 3 -6 10 -3 15 9 13 12 11 12 -6z m-2927
-180 c17 -20 4 -35 -30 -35 -16 0 -32 5 -35 10 -9 15 13 40 35 40 10 0 23 -7
30 -15z m318 -17 c4 -22 -42 -35 -63 -18 -12 10 -13 16 -3 27 15 19 62 13 66
-9z m61 -142 c10 -12 9 -17 -6 -24 -19 -10 -63 1 -63 16 0 25 50 31 69 8z
m580 -225 c21 -13 5 -41 -22 -41 -32 0 -51 22 -35 38 14 14 37 15 57 3z m-474
-254 c24 -18 11 -37 -25 -37 -36 0 -49 19 -25 37 11 7 22 13 25 13 3 0 14 -6
25 -13z m303 -149 c5 -24 -44 -36 -65 -15 -22 21 -7 39 30 35 21 -2 33 -9 35
-20z"/>
<path d="M2914 3164 c3 -21 33 -39 33 -20 0 8 -7 12 -15 8 -10 -3 -13 -1 -8 6
3 6 2 13 -3 16 -5 4 -8 -1 -7 -10z"/>
<path d="M3520 3144 c1 -28 35 -45 68 -33 33 12 27 30 -8 23 -18 -4 -36 -1
-45 6 -8 7 -15 9 -15 4z"/>
<path d="M505 3060 c-3 -6 -51 -10 -108 -10 -68 -1 -110 -5 -127 -15 -16 -9
-40 -12 -68 -8 -32 4 -47 2 -62 -12 -42 -38 -10 -85 56 -85 45 0 64 14 64 45
0 12 5 26 12 33 15 15 210 16 225 1 19 -19 58 -6 61 20 5 33 -37 57 -53 31z
m-290 -64 c16 -12 17 -16 6 -30 -17 -20 -32 -20 -57 -1 -19 15 -19 15 0 30 24
18 27 18 51 1z"/>
<path d="M2995 3029 c-4 -6 -5 -13 -2 -16 7 -7 27 6 27 18 0 12 -17 12 -25 -2z"/>
<path d="M847 3004 c-4 -4 -7 -14 -7 -23 0 -10 -41 -39 -105 -75 -71 -40 -105
-64 -105 -76 0 -10 -9 -20 -20 -23 -49 -13 -29 -70 23 -65 41 4 57 31 34 56
-16 18 -16 20 0 34 44 37 190 116 216 116 38 -1 55 17 41 40 -11 17 -64 29
-77 16z"/>
<path d="M1312 2381 c-79 -48 -156 -98 -172 -109 -25 -19 -43 -22 -123 -22
l-93 0 -150 -101 c-82 -55 -158 -109 -170 -120 -15 -14 -35 -19 -77 -19 -54 0
-64 -4 -193 -84 -119 -74 -140 -84 -169 -79 -40 7 -85 -18 -85 -46 0 -27 32
-51 69 -51 47 0 71 16 71 48 1 24 17 37 137 110 126 76 140 82 191 82 44 0 61
5 91 29 20 15 96 69 170 120 l134 91 89 0 89 0 152 94 c84 51 167 101 185 110
35 18 43 36 15 35 -10 0 -82 -40 -161 -88z m-1137 -565 c16 -12 17 -16 6 -30
-7 -9 -21 -16 -31 -16 -10 0 -24 7 -31 16 -11 14 -10 18 6 30 10 8 22 14 25
14 3 0 15 -6 25 -14z"/>
<path d="M1980 2241 c0 -45 -4 -71 -12 -73 -7 -3 -6 -7 5 -11 15 -6 17 2 17
73 0 44 -2 80 -5 80 -3 0 -5 -31 -5 -69z"/>
<path d="M1930 2213 c0 -22 2 -25 10 -13 13 20 13 40 0 40 -5 0 -10 -12 -10
-27z"/>
<path d="M2091 2181 c-7 -5 -12 -14 -10 -20 2 -6 10 -2 17 9 14 22 13 23 -7
11z"/>
<path d="M1815 2106 l-120 -73 -3 -120 -3 -121 -54 -36 c-37 -24 -66 -36 -90
-36 -34 0 -75 -27 -75 -50 0 -5 9 -19 20 -30 42 -42 131 -12 117 40 -4 16 7
28 54 61 l59 40 0 118 0 117 114 68 c80 47 113 72 109 82 -3 8 -6 14 -7 13 0
0 -55 -33 -121 -73z m-250 -420 c16 -12 17 -16 6 -30 -7 -9 -21 -16 -31 -16
-10 0 -24 7 -31 16 -11 14 -10 18 6 30 10 8 22 14 25 14 3 0 15 -6 25 -14z"/>
<path d="M2172 2135 c0 -16 2 -22 5 -12 2 9 2 23 0 30 -3 6 -5 -1 -5 -18z"/>
<path d="M3055 2124 c17 -13 36 -22 43 -19 7 3 10 1 7 -5 -7 -11 34 -35 54
-31 8 1 10 -2 5 -10 -4 -7 -3 -10 3 -6 6 4 13 1 16 -6 7 -18 65 -49 71 -38 3
5 -39 37 -95 72 -103 65 -159 88 -104 43z"/>
<path d="M2081 2108 c-1 -18 6 -31 20 -38 11 -7 23 -9 26 -7 2 3 -5 8 -16 12
-12 3 -21 17 -24 33 l-4 27 -2 -27z"/>
<path d="M2953 2065 c0 -8 4 -12 9 -9 5 3 6 10 3 15 -9 13 -12 11 -12 -6z"/>
<path d="M3406 2068 c3 -5 10 -6 15 -3 13 9 11 12 -6 12 -8 0 -12 -4 -9 -9z"/>
<path d="M2976 2051 c-7 -10 36 -41 65 -46 10 -2 25 -7 32 -10 20 -11 -35 32
-64 49 -15 9 -30 12 -33 7z"/>
<path d="M2095 2037 c-12 -10 -14 -16 -7 -21 15 -9 54 12 47 25 -8 12 -18 11
-40 -4z"/>
<path d="M2157 2039 c7 -7 15 -10 18 -7 3 3 -2 9 -12 12 -14 6 -15 5 -6 -5z"/>
<path d="M2008 1982 l-58 -37 0 -91 c0 -87 -1 -91 -25 -102 -27 -13 -34 -49
-13 -70 17 -17 93 -15 108 3 17 20 5 62 -20 70 -18 6 -20 15 -20 91 l0 84 55
36 c30 20 52 40 49 45 -8 13 -14 11 -76 -29z m12 -276 c0 -15 -3 -17 -9 -7 -6
9 -11 10 -15 2 -8 -13 -86 -12 -86 1 0 5 4 7 9 4 5 -3 11 3 14 13 3 12 15 21
33 23 36 4 54 -8 54 -36z"/>
<path d="M2805 2001 c-3 -5 -2 -12 3 -15 5 -3 9 1 9 9 0 17 -3 19 -12 6z"/>
<path d="M3267 2003 c-11 -11 3 -22 20 -16 12 5 14 3 8 -7 -5 -9 -4 -11 3 -6
7 4 12 9 12 11 0 8 -38 24 -43 18z"/>
<path d="M3123 1907 l-1 -62 9 54 c5 30 6 58 2 62 -5 5 -9 -20 -10 -54z"/>
<path d="M2877 1938 c10 -12 12 -18 6 -14 -10 6 -13 -21 -13 -122 0 -128 0
-130 26 -147 31 -20 44 -12 21 13 -9 10 -18 41 -20 72 -4 55 -4 55 -3 -7 1
-33 -2 -59 -6 -56 -5 2 -7 57 -6 121 1 91 3 106 8 67 7 -47 7 -46 6 19 -1 59
-4 70 -19 72 -18 2 -18 2 0 -18z"/>
<path d="M3346 1951 c-4 -5 -2 -12 3 -15 5 -4 12 -2 15 3 4 5 2 12 -3 15 -5 4
-12 2 -15 -3z"/>
<path d="M2435 1790 c1 -56 15 -63 15 -7 0 26 -4 47 -8 47 -4 0 -8 -18 -7 -40z"/>
<path d="M3200 1754 c0 -17 27 -37 34 -25 4 5 2 12 -4 16 -5 3 -10 3 -10 -2 0
-4 -5 -1 -10 7 -5 8 -10 10 -10 4z"/>
<path d="M2440 1670 c-23 -7 -23 -8 -3 -9 12 -1 25 4 28 9 3 6 5 10 3 9 -2 -1
-14 -5 -28 -9z"/>
<path d="M2931 1589 c-1 -9 7 -23 17 -30 15 -12 16 -12 6 1 -6 8 -14 22 -17
30 -5 13 -6 12 -6 -1z"/>
<path d="M1740 1540 c-58 -11 -130 -28 -160 -39 -34 -13 -43 -19 -22 -15 26 4
32 2 32 -12 0 -13 5 -11 21 10 19 24 68 39 54 15 -4 -6 -13 -8 -20 -5 -20 7
-27 -21 -10 -38 8 -8 15 -19 15 -24 0 -6 18 -6 47 -1 25 5 48 7 50 5 3 -2 -22
-9 -54 -16 -32 -6 -69 -16 -83 -21 l-25 -9 25 5 c159 29 243 38 370 38 164 0
240 -12 525 -78 271 -63 421 -78 560 -55 32 5 6 6 -71 2 -86 -3 -126 -1 -140
7 -13 9 -14 11 -3 8 9 -3 22 0 28 6 8 8 11 8 11 -1 0 -7 5 -12 11 -12 5 0 8 4
5 9 -4 5 4 7 16 4 22 -4 22 -4 -2 11 -24 16 -24 16 25 11 28 -3 61 -7 75 -10
70 -13 94 -15 85 -7 -5 5 -46 14 -90 20 -44 6 -138 28 -210 48 -71 21 -145 38
-163 38 -18 0 -28 2 -22 6 21 13 -275 89 -423 109 -120 17 -336 12 -457 -9z
m-25 -80 c-3 -5 -19 -10 -35 -10 -16 0 -32 5 -35 10 -4 6 10 10 35 10 25 0 39
-4 35 -10z m92 -16 c-3 -3 -12 -4 -19 -1 -8 3 -5 6 6 6 11 1 17 -2 13 -5z
m918 -44 c3 -6 -1 -7 -9 -4 -18 7 -21 14 -7 14 6 0 13 -4 16 -10z m90 -21 c19
0 19 -1 -2 -11 -16 -8 -27 -6 -45 7 l-23 17 25 -6 c14 -3 34 -6 45 -7z m65
-19 c13 -9 13 -10 0 -10 -8 0 -22 5 -30 10 -13 9 -13 10 0 10 8 0 22 -5 30
-10z m-110 -24 c0 -3 -4 -8 -10 -11 -5 -3 -10 -1 -10 4 0 6 5 11 10 11 6 0 10
-2 10 -4z"/>
<path d="M1360 1420 c-8 -5 -10 -10 -5 -10 6 0 17 5 25 10 8 5 11 10 5 10 -5
0 -17 -5 -25 -10z"/>
<path d="M3539 1413 c-13 -16 -12 -17 4 -4 9 7 17 15 17 17 0 8 -8 3 -21 -13z"/>
<path d="M3499 1383 c-13 -16 -12 -17 4 -4 16 13 21 21 13 21 -2 0 -10 -8 -17
-17z"/>
<path d="M1558 1383 c7 -3 16 -2 19 1 4 3 -2 6 -13 5 -11 0 -14 -3 -6 -6z"/>
<path d="M1875 1360 c-84 -9 -173 -27 -142 -29 9 -1 17 -6 17 -12 0 -8 4 -8
13 -1 10 8 13 6 14 -10 1 -12 8 -25 15 -29 7 -5 9 -9 3 -10 -5 0 -1 -4 10 -9
19 -8 19 -9 -2 -9 -13 -1 -23 -6 -23 -12 0 -5 4 -8 8 -5 4 3 13 -8 19 -25 13
-34 7 -36 -27 -9 -26 20 -56 27 -45 10 3 -5 -15 -7 -47 -5 -58 5 -58 5 87 -30
55 -14 150 -46 210 -71 240 -101 541 -202 569 -190 6 2 3 5 -6 5 -10 1 -16 9
-15 21 1 10 3 17 5 15 7 -6 30 19 25 28 -2 4 5 7 16 7 14 0 19 5 15 15 -6 16
-24 16 -37 0 -5 -6 -7 -4 -4 5 4 16 29 17 126 5 58 -7 54 -26 -4 -20 -19 2
-32 -2 -32 -9 0 -7 15 -12 34 -12 42 0 58 -21 38 -51 -8 -12 -11 -23 -7 -26 4
-2 1 -2 -5 -1 -7 2 -23 0 -35 -5 -28 -10 43 -19 202 -25 l115 -5 -122 12 c-67
7 -124 15 -128 18 -3 4 6 5 20 4 19 -3 25 1 25 17 0 18 -2 19 -17 7 -9 -8 -14
-9 -10 -2 4 6 2 13 -3 15 -6 2 -12 13 -13 26 0 12 -5 22 -10 22 -5 0 -1 7 8
16 10 10 20 13 25 8 6 -6 58 -6 126 -1 224 15 219 22 -17 22 l-234 0 -145 37
c-80 20 -194 55 -255 77 -115 42 -277 91 -301 91 -8 0 -14 5 -14 11 0 28 334
-18 577 -81 210 -55 383 -76 498 -61 63 7 65 9 23 10 -26 0 -51 7 -55 14 -13
20 -51 38 -58 27 -3 -6 -15 -10 -26 -10 -11 0 -18 -4 -14 -9 3 -5 1 -12 -4
-15 -12 -8 -25 49 -15 65 5 9 -3 10 -28 5 -28 -5 -37 -3 -42 10 -3 8 -6 16 -6
17 0 1 78 2 173 3 103 1 184 6 202 12 l30 12 -30 -5 c-16 -3 -84 -8 -150 -11
-145 -8 -206 1 -465 66 -107 26 -228 53 -267 59 -104 16 -295 21 -388 11z
m603 -83 c6 -29 -27 -57 -65 -57 -44 0 -53 23 -22 56 28 30 82 31 87 1z m62
-3 l35 -14 -34 6 c-23 4 -36 2 -42 -7 -6 -10 -9 -8 -9 9 0 25 2 26 50 6z
m-527 -11 c-7 -2 -21 -2 -30 0 -10 3 -4 5 12 5 17 0 24 -2 18 -5z m-121 -41
c3 7 12 7 28 -2 14 -8 37 -13 52 -12 15 1 30 -2 33 -8 4 -6 12 -7 18 -4 9 5 9
4 0 -6 -7 -7 -17 -9 -25 -4 -24 15 -95 15 -101 0 -3 -8 1 -17 9 -20 10 -4 13
-2 8 7 -5 9 -4 9 6 0 7 -7 25 -10 39 -9 14 2 20 1 14 -1 -7 -2 -13 -11 -13
-19 0 -19 -9 -18 -66 8 -33 15 -43 23 -31 26 22 5 22 10 -5 33 l-23 19 27 -9
c18 -7 28 -7 30 1z m858 -12 c0 -5 -5 -10 -11 -10 -5 0 -7 5 -4 10 3 6 8 10
11 10 2 0 4 -4 4 -10z m-346 -9 c4 -5 -3 -7 -14 -4 -23 6 -26 13 -6 13 8 0 17
-4 20 -9z m359 -78 c-7 -2 -19 -2 -25 0 -7 3 -2 5 12 5 14 0 19 -2 13 -5z
m147 -8 c0 -8 -2 -15 -4 -15 -2 0 -6 7 -10 15 -3 8 -1 15 4 15 6 0 10 -7 10
-15z m45 5 c3 -5 -1 -10 -9 -10 -9 0 -16 5 -16 10 0 6 4 10 9 10 6 0 13 -4 16
-10z m-695 -15 c10 -13 10 -19 -5 -35 -22 -25 -65 -27 -65 -3 0 20 28 53 45
53 7 0 18 -7 25 -15z m567 9 c-3 -3 -12 -4 -19 -1 -8 3 -5 6 6 6 11 1 17 -2
13 -5z m-520 -12 c14 -9 6 -24 -22 -40 -11 -6 -14 -12 -7 -12 7 0 10 -5 7 -11
-4 -5 1 -19 10 -30 18 -18 17 -19 -29 -3 -25 9 -48 20 -52 25 -8 14 30 11 46
-3 12 -11 12 -10 2 3 -10 13 -9 19 4 29 8 8 13 22 11 32 -5 19 9 23 30 10z
m198 -80 c-3 -3 -11 0 -18 7 -9 10 -8 11 6 5 10 -3 15 -9 12 -12z m15 -84 c0
-11 -22 -10 -40 2 -11 8 -9 9 13 8 15 -1 27 -6 27 -10z"/>
<path d="M1678 1323 c6 -2 18 -2 25 0 6 3 1 5 -13 5 -14 0 -19 -2 -12 -5z"/>
<path d="M3135 1320 c-14 -7 -8 -8 20 -3 22 3 42 7 44 9 9 8 -45 2 -64 -6z"/>
<path d="M3265 1270 c-13 -6 -15 -9 -5 -9 8 0 22 4 30 9 18 12 2 12 -25 0z"/>
<path d="M3188 1243 c7 -3 16 -2 19 1 4 3 -2 6 -13 5 -11 0 -14 -3 -6 -6z"/>
<path d="M3320 1170 c-8 -5 -10 -10 -5 -10 6 0 17 5 25 10 8 5 11 10 5 10 -5
0 -17 -5 -25 -10z"/>
<path d="M3250 1150 c-20 -6 -21 -8 -5 -8 11 0 29 3 40 8 25 11 -1 11 -35 0z"/>
<path d="M2988 1123 c7 -3 16 -2 19 1 4 3 -2 6 -13 5 -11 0 -14 -3 -6 -6z"/>
<path d="M3158 1123 c7 -3 16 -2 19 1 4 3 -2 6 -13 5 -11 0 -14 -3 -6 -6z"/>
<path d="M3083 1113 c9 -2 25 -2 35 0 9 3 1 5 -18 5 -19 0 -27 -2 -17 -5z"/>
<path d="M3325 1090 c-13 -5 -14 -9 -5 -9 8 0 24 4 35 9 13 5 14 9 5 9 -8 0
-24 -4 -35 -9z"/>
<path d="M3208 1053 c7 -3 16 -2 19 1 4 3 -2 6 -13 5 -11 0 -14 -3 -6 -6z"/>
<path d="M3420 1050 c-9 -6 -10 -10 -3 -10 6 0 15 5 18 10 8 12 4 12 -15 0z"/>
<path d="M3168 1043 c7 -3 16 -2 19 1 4 3 -2 6 -13 5 -11 0 -14 -3 -6 -6z"/>
<path d="M1900 1035 c0 -3 12 -10 26 -15 16 -7 23 -14 18 -22 -5 -9 -2 -9 9 1
11 8 17 9 17 3 0 -20 -38 -34 -59 -22 -11 5 -23 10 -28 9 -11 0 159 -88 172
-88 6 0 -3 7 -19 15 -22 13 -26 18 -15 25 20 12 31 11 23 -3 -4 -7 -3 -8 4 -4
17 10 15 26 -3 26 -8 0 -15 4 -15 9 0 4 12 6 28 3 44 -8 22 5 -66 37 -89 33
-92 34 -92 26z m96 -50 c-4 -12 -2 -13 12 -6 14 7 18 5 18 -10 0 -12 -5 -18
-13 -15 -7 3 -13 0 -13 -7 0 -7 -3 -8 -8 -2 -4 6 -13 10 -19 11 -35 3 -36 6
-8 23 37 24 38 24 31 6z"/>
<path d="M3118 1033 c7 -3 16 -2 19 1 4 3 -2 6 -13 5 -11 0 -14 -3 -6 -6z"/>
<path d="M3405 1000 c-13 -6 -15 -9 -5 -9 8 0 22 4 30 9 18 12 2 12 -25 0z"/>
<path d="M2757 974 c-4 -4 -7 -12 -7 -18 0 -6 4 -5 9 3 7 10 12 8 25 -10 12
-17 19 -20 27 -12 14 14 2 36 -16 29 -7 -2 -17 0 -22 5 -5 5 -12 6 -16 3z"/>
<path d="M2610 957 c-8 -7 -16 -19 -18 -27 -2 -8 -9 -18 -15 -22 -9 -6 -9 -8
0 -8 6 0 20 -3 30 -6 15 -5 15 -4 3 5 -13 9 -13 14 2 41 19 34 19 34 -2 17z"/>
<path d="M3460 950 c-8 -5 -10 -10 -5 -10 6 0 17 5 25 10 8 5 11 10 5 10 -5 0
-17 -5 -25 -10z"/>
<path d="M2213 916 c14 -11 15 -15 5 -19 -7 -2 -3 -2 10 0 15 2 22 -2 22 -12
0 -14 -12 -20 -33 -16 -5 1 -6 -3 -3 -8 4 -5 2 -12 -4 -16 -5 -3 -10 -3 -10 2
0 4 -12 9 -28 9 -90 4 339 -146 503 -175 105 -18 345 -39 335 -28 -3 2 -50 8
-105 11 -104 7 -226 24 -234 32 -2 2 3 4 11 4 9 0 21 7 28 15 11 13 8 15 -14
15 -14 0 -26 5 -26 11 0 7 11 9 30 6 36 -8 50 10 18 23 -28 12 117 3 163 -10
17 -5 27 -5 24 0 -3 5 41 11 102 13 93 2 87 3 -46 5 -238 3 -405 33 -641 113
-127 43 -133 45 -107 25z m292 -93 c70 -17 101 -39 43 -30 -26 4 -38 2 -42 -9
-8 -21 4 -44 19 -38 8 3 11 12 8 20 -5 14 18 20 30 8 8 -8 -30 -44 -46 -44
-21 0 -160 49 -171 60 -7 7 -6 10 3 10 7 0 9 4 6 10 -4 6 1 7 11 3 12 -4 15
-3 10 5 -5 8 2 12 21 12 23 0 25 2 13 11 -12 8 -9 9 10 4 14 -4 52 -13 85 -22z
m139 -69 c20 -8 21 -24 1 -24 -8 0 -15 4 -15 9 0 5 -8 12 -17 14 -16 4 -16 5
-1 6 9 0 23 -2 32 -5z"/>
<path d="M2417 807 c-4 -10 -12 -14 -22 -11 -8 3 -15 1 -15 -5 0 -9 28 -16 53
-12 4 0 7 -3 7 -9 0 -5 11 -10 25 -10 14 0 25 5 25 10 0 6 -7 10 -15 10 -8 0
-15 5 -15 10 0 6 -6 10 -14 10 -8 0 -16 5 -18 12 -3 8 -7 6 -11 -5z"/>
<path d="M3288 903 c7 -3 16 -2 19 1 4 3 -2 6 -13 5 -11 0 -14 -3 -6 -6z"/>
<path d="M2077 889 c7 -7 15 -10 18 -7 3 3 -2 9 -12 12 -14 6 -15 5 -6 -5z"/>
<path d="M3228 893 c6 -2 18 -2 25 0 6 3 1 5 -13 5 -14 0 -19 -2 -12 -5z"/>
<path d="M3163 883 c9 -2 25 -2 35 0 9 3 1 5 -18 5 -19 0 -27 -2 -17 -5z"/>
<path d="M3093 873 c9 -2 25 -2 35 0 9 3 1 5 -18 5 -19 0 -27 -2 -17 -5z"/>
<path d="M3308 813 c7 -3 16 -2 19 1 4 3 -2 6 -13 5 -11 0 -14 -3 -6 -6z"/>
<path d="M3258 803 c6 -2 18 -2 25 0 6 3 1 5 -13 5 -14 0 -19 -2 -12 -5z"/>
<path d="M3198 793 c7 -3 16 -2 19 1 4 3 -2 6 -13 5 -11 0 -14 -3 -6 -6z"/>
<path d="M3133 783 c9 -2 23 -2 30 0 6 3 -1 5 -18 5 -16 0 -22 -2 -12 -5z"/>
<path d="M2910 732 c0 -6 -12 -19 -26 -29 -26 -16 -27 -16 -45 6 -21 26 -26
15 -6 -13 9 -12 20 -16 38 -11 25 6 55 42 45 53 -3 3 -6 0 -6 -6z"/>
<path d="M3418 713 c7 -3 16 -2 19 1 4 3 -2 6 -13 5 -11 0 -14 -3 -6 -6z"/>
<path d="M3378 703 c7 -3 16 -2 19 1 4 3 -2 6 -13 5 -11 0 -14 -3 -6 -6z"/>
<path d="M3338 693 c7 -3 16 -2 19 1 4 3 -2 6 -13 5 -11 0 -14 -3 -6 -6z"/>
<path d="M3268 683 c6 -2 18 -2 25 0 6 3 1 5 -13 5 -14 0 -19 -2 -12 -5z"/>
<path d="M3120 670 l-65 -7 55 -1 c30 0 75 3 100 7 40 8 41 8 10 8 -19 0 -64
-3 -100 -7z"/>
</g>
</svg>
